<?xml version="1.0" encoding="utf-8"?>
<!DOCTYPE svg PUBLIC "-//W3C//DTD SVG 1.1//EN" "http://www.w3.org/Graphics/SVG/1.1/DTD/svg11.dtd">
<svg version="1.1" xmlns="http://www.w3.org/2000/svg" xmlns:xlink="http://www.w3.org/1999/xlink" x="0px" y="0px" viewBox="0 0 100 100" enable-background="new 0 0 100 100" xml:space="preserve">
    <g>
        <path d="M164.8,518.5L164.8,518.5L164.8,518.5h2.3H164.8z"/>
        <path d="M846.6,153.3L846.6,153.3C756.5,63.2,634,10,500,10S241.1,65.5,153.3,153.3l0,0C65.5,241.2,10,363.6,10,500c0,134,55.5,258.9,143.3,346.7C241.1,936.8,365.9,990,500,990c136.4,0,258.9-55.5,346.7-143.3c90.1-87.8,143.3-210.3,143.3-346.7C992.2,363.6,936.8,241.2,846.6,153.3z M793.5,793.5c-74,74-178,122.5-293.5,122.5c-115.6,0-219.6-46.2-293.5-122.5C132.5,719.6,84,615.6,84,500c0-115.6,46.2-219.6,122.5-293.5C282.7,132.5,386.7,84,500,84c113.2,0,217.2,46.2,291.2,120.2l2.3,2.3c74,74,122.5,178,122.5,293.5C916,615.6,869.8,719.6,793.5,793.5z"/><path d="M359,206.5l228.8,131.7L816.6,470c16.2,9.2,20.8,30,11.6,46.2c-4.6,4.6-9.2,9.2-13.9,13.9L585.5,661.8l0,0L356.7,793.5c-16.2,9.2-37,4.6-46.2-11.6c-2.3-6.9-4.6-11.6-4.6-18.5V500l0,0V234.2c0-18.5,13.9-32.4,32.4-32.4C347.4,201.9,354.4,204.2,359,206.5L359,206.5z"/>
    </g>
</svg>